<?xml version="1.0" encoding="utf-8"?>
<!-- Generator: Adobe Illustrator 22.0.1, SVG Export Plug-In . SVG Version: 6.00 Build 0)  -->
<svg version="1.1" xmlns="http://www.w3.org/2000/svg" xmlns:xlink="http://www.w3.org/1999/xlink" x="0px" y="0px"
	 viewBox="0 0 514.6 174.5" style="enable-background:new 0 0 514.6 174.5;" xml:space="preserve">
<style type="text/css">
	.st0{fill:#FC5B5B;}
	.st1{fill:#FFFFFF;}
</style>
<g id="Layer_3">
</g>
<g id="Layer_2">
	<g>
		<polygon class="st1" points="118.5,9.9 29.2,164.6 207.8,164.6 		"/>
		<g>
			<path class="st1" d="M284,66.5h33.3v93.9H284V150c-7.1,8.9-16.7,13.4-28.7,13.4c-6.8,0-13.1-1.3-18.9-3.8
				c-5.7-2.5-10.7-6-15-10.5c-4.3-4.5-7.6-9.8-10-15.9c-2.4-6.1-3.6-12.8-3.6-20c0-6.7,1.2-13.1,3.5-19.1c2.3-6,5.6-11.3,9.7-15.8
				c4.1-4.5,9.1-8.1,14.8-10.7c5.7-2.6,12.1-3.9,19-3.9c11.7,0,21.4,4.1,29.1,12.3V66.5z M242.3,113.1c0,3.1,0.5,5.9,1.6,8.5
				c1.1,2.6,2.6,4.9,4.5,6.9c1.9,2,4.1,3.5,6.8,4.6c2.6,1.1,5.5,1.6,8.5,1.6c2.9,0,5.7-0.5,8.3-1.6c2.6-1.1,4.9-2.6,6.8-4.6
				c1.9-2,3.4-4.2,4.6-6.8c1.2-2.6,1.7-5.3,1.7-8.2c0-2.9-0.6-5.7-1.7-8.3c-1.2-2.6-2.7-4.9-4.6-6.9c-1.9-2-4.2-3.5-6.8-4.6
				c-2.6-1.1-5.4-1.6-8.3-1.6c-3.1,0-5.9,0.5-8.5,1.6c-2.6,1.1-4.9,2.6-6.8,4.6c-1.9,2-3.4,4.2-4.5,6.7
				C242.8,107.5,242.3,110.2,242.3,113.1z"/>
			<path class="st1" d="M407.6,96.9c-5.7-3.9-11.5-5.9-17.4-5.9c-3.2,0-6.1,0.5-8.9,1.6s-5.2,2.7-7.2,4.7c-2.1,2-3.7,4.4-4.9,7.1
				c-1.2,2.7-1.7,5.8-1.7,9.2c0,3.3,0.6,6.3,1.7,9.1c1.2,2.7,2.7,5.1,4.8,7.1c2,2,4.4,3.6,7.2,4.7c2.8,1.1,5.8,1.6,9,1.6
				c6.2,0,12-2.1,17.4-6.4V158c-8.2,3.5-15.9,5.3-23.3,5.3c-6.8,0-13.3-1.2-19.5-3.5c-6.2-2.3-11.6-5.6-16.3-10
				c-4.7-4.3-8.5-9.5-11.3-15.6c-2.8-6-4.2-12.8-4.2-20.2c0-7.4,1.3-14.3,4-20.4c2.7-6.2,6.3-11.5,11-15.9
				c4.6-4.5,10.2-7.9,16.6-10.4c6.4-2.5,13.3-3.8,20.6-3.8c8.1,0,15.5,1.7,22.3,5.1V96.9z"/>
			<path class="st1" d="M466.6,94.1v66.3h-33.1V94.1h-11V66.5h11V38.3h33.1v28.2h18.9v27.7H466.6z"/>
		</g>
	</g>
</g>
<g id="Layer_1">
</g>
</svg>
