<?xml version="1.0" encoding="utf-8"?>
<!-- Generator: Adobe Illustrator 22.0.1, SVG Export Plug-In . SVG Version: 6.00 Build 0)  -->
<svg version="1.1" id="Layer_1" xmlns="http://www.w3.org/2000/svg" xmlns:xlink="http://www.w3.org/1999/xlink" x="0px" y="0px"
	 viewBox="0 0 99.9 99.9" style="enable-background:new 0 0 99.9 99.9;" xml:space="preserve">
<style type="text/css">
	.st0{fill:#FFFFFF;}
	.st1{fill:#FC5B5B;}
</style>
<rect x="13" y="32" class="st0" width="85.3" height="63"/>
<g>
	<path class="st1" d="M36.2,59.1c0,4.4,0,8.6,0,12.9c2,0,3.9-0.1,5.6,0c3.6,0.3,6.2-0.9,8.1-3.8c0-2,0-3.8,0-5.7
		c-1.3-1.3-2.4-2.4-3.4-3.4C43.1,59.1,39.7,59.1,36.2,59.1z"/>
	<path class="st1" d="M0,0v99.9h99.9V0C99.9,0,0,0,0,0z M59,88.8c-3.3,0-6.3,0-9.6,0c-1.7-3.1-3.6-6.2-5.4-9.6c-2.5,0-4.9,0-7.7,0
		c0,2.7,0,5.6,0,8.4c-2.9,2.5-5.9,0.9-8.9,1.5c0-12.5,0-24.6,0-37.1c6.2,0,12.4-0.2,18.5,0.1c4.5,0.2,11.5,4.4,12.3,9.5
		c0.3,1.9,1.9,3.5,0.4,5.8c-0.9,1.4-0.5,3.8-1.6,5.2c-1.3,1.6-3,2.9-4.6,4.4C52.5,79.7,54.6,83.4,59,88.8z M95.7,88.8
		c-9.6,0-19,0-28.7,0c0-12.2,0-24.4,0-36.8c9.2,0,18.3,0,27.6,0c0,2.2,0,4.3,0,6.9C88,59,81.6,59,75,59c0,2.6,0,5,0,7.9
		c5.7,0,11.7,0,17.7,0c0,2.5,0,4.5,0,7c-5.8,0-11.8,0-17.8,0c0,2.8,0,5.2,0,7.9c6.5,0,13,0,19.2,0c0.7,0.7,1.1,1.1,1.6,1.6
		C95.7,85.2,95.7,86.9,95.7,88.8z"/>
</g>
<g>
	<path class="st0" d="M96.9,3v93.9H3V3H96.9 M99.9,0H0v99.9h99.9V0L99.9,0z"/>
</g>
</svg>
