<?xml version="1.0" encoding="utf-8"?>
<!-- Generator: Adobe Illustrator 22.0.1, SVG Export Plug-In . SVG Version: 6.00 Build 0)  -->
<svg version="1.1" id="Layer_1" xmlns="http://www.w3.org/2000/svg" xmlns:xlink="http://www.w3.org/1999/xlink" x="0px" y="0px"
	 viewBox="0 0 99.9 99.9" style="enable-background:new 0 0 99.9 99.9;" xml:space="preserve">
<style type="text/css">
	.st0{fill:#FFFFFF;}
</style>
<g>
	<path class="st0" d="M0,99.9C0,66.6,0,33.4,0,0c33.2,0,66.5,0,99.9,0c0,33.2,0,66.5,0,99.9C66.6,99.9,33.4,99.9,0,99.9z M59.7,82.8
		c1.6,2,2.5,4.1,4.1,5.2c6.8,4.8,14.2,5.5,21.7,1.9c4-1.9,6.1-5.3,6.4-10c0.4-6.3-2.7-10.4-7.8-13.4c-2.9-1.7-6-2.9-8.9-4.6
		c-3.2-1.9-3.5-3-2.1-7.2c0.8-0.2,1.8-0.9,2.6-0.7c2.4,0.5,4.7,1.4,7.5,2.3c1.6-1.1,3.4-2.4,5.7-4c-1.7-1.9-2.7-3.6-4.3-4.7
		c-4.6-3.2-13.6-3.9-18.9,1.5c-3.1,3.1-4.3,6.7-3.5,10.9c0.8,4.3,3,7.7,7.1,9.6c3.4,1.7,7,3.2,10.2,5.3c1.3,0.8,2.6,3,2.4,4.3
		c-0.2,1.4-2,3-3.5,3.7c-3,1.3-5.9,0.3-8.4-1.5c-1.3-0.9-2.5-2-4-3.2C64.2,79.9,62.3,81.1,59.7,82.8z M45.4,46.4
		c-0.2,2.7-0.5,4.7-0.5,6.7c-0.1,7.3,0,14.7,0,22c0,1.7,0,3.4-0.5,4.9c-1,3.4-4.1,4.5-7,2.6c-1.4-0.9-2.6-2-3.8-3
		c-2.8,1-5.2,2-6.2,4.8c3.1,6.3,9.3,8.9,16.9,7.2c6.6-1.5,9.6-5.2,9.6-12.6c0.1-9,0.1-18,0-27c0-1.8-0.5-3.5-0.8-5.6
		C50.5,46.4,48.3,46.4,45.4,46.4z"/>
</g>
</svg>
