<?xml version="1.0" encoding="utf-8"?>
<!-- Generator: Adobe Illustrator 22.0.1, SVG Export Plug-In . SVG Version: 6.00 Build 0)  -->
<svg version="1.1" id="Layer_1" xmlns="http://www.w3.org/2000/svg" xmlns:xlink="http://www.w3.org/1999/xlink" x="0px" y="0px"
	 viewBox="0 0 101 101" style="enable-background:new 0 0 101 101;" xml:space="preserve">
<style type="text/css">
	.st0{fill:#FFFFFF;}
</style>
<g>
	<path class="st0" d="M36.6,59.7c0,4.4,0,8.7,0,13c2,0,3.9-0.1,5.7,0c3.6,0.3,6.3-0.9,8.2-3.8c0-2,0-3.8,0-5.8
		c-1.3-1.3-2.4-2.4-3.4-3.4C43.6,59.7,40.1,59.7,36.6,59.7z"/>
	<path class="st0" d="M0,0v101h101V0H0z M59.6,89.7c-3.3,0-6.4,0-9.7,0c-1.7-3.1-3.6-6.3-5.5-9.7c-2.5,0-5,0-7.8,0
		c0,2.7,0,5.7,0,8.5c-2.9,2.5-6,0.9-9,1.5c0-12.6,0-24.9,0-37.5c6.3,0,12.5-0.2,18.7,0.1c4.5,0.2,11.6,4.4,12.4,9.6
		c0.3,1.9,1.9,3.5,0.4,5.9c-0.9,1.4-0.5,3.8-1.6,5.3c-1.3,1.6-3,2.9-4.7,4.4C53.1,80.6,55.2,84.3,59.6,89.7z M96.8,89.8
		c-9.7,0-19.2,0-29,0c0-12.3,0-24.7,0-37.2c9.3,0,18.5,0,27.9,0c0,2.2,0,4.3,0,7c-6.7,0-13.2,0-19.9,0c0,2.6,0,5.1,0,8
		c5.8,0,11.8,0,17.9,0c0,2.5,0,4.6,0,7.1c-5.9,0-11.9,0-18,0c0,2.8,0,5.3,0,8c6.6,0,13.1,0,19.4,0c0.7,0.7,1.1,1.1,1.6,1.6
		C96.8,86.1,96.8,87.9,96.8,89.8z"/>
</g>
</svg>
